<svg id="Layer_1" xmlns="http://www.w3.org/2000/svg" xmlns:xlink="http://www.w3.org/1999/xlink" viewBox="0 0 1025.5 557.5"><style>.st0{opacity:.1}.st1{fill:#495254}.st2{fill:#778487}.st3{fill:#525c5e}.st4{fill:#657072}.st5{fill:#586366}.st6{fill:#8b9a9e}.st7{fill:#715c3f}.st8{fill:#898886}.st9{fill:#c9c7b9}.st10{fill:#e2e2e2}.st11{fill:#ede9dc}.st12{fill:#f4efe1}.st13{fill:#c1bdb4}.st14{fill:#ede8dd}.st15{fill:#4b5659}.st16{fill:#707f84}.st17{fill:#3f6177}.st18{fill:#355166}.st19{fill:#3a576b}.st20{fill:#383e3f}.st21{fill:#3a3a3a}.st22{fill:#efc6b6}.st23{opacity:.5}.st24{fill:#fff392}.st24,.st25,.st26{clip-path:url(#SVGID_2_)}.st25{fill:#fff394}.st26{fill:#fff395}.st27{fill:#fff497}.st27,.st28,.st29,.st30,.st31{clip-path:url(#SVGID_2_)}.st28{fill:#fff499}.st29{fill:#fff49a}.st30{fill:#fff49c}.st31{fill:#fff49e}.st32{fill:#fff49f}.st32,.st33,.st34,.st35,.st36{clip-path:url(#SVGID_2_)}.st33{fill:#fff5a1}.st34{fill:#fff5a2}.st35{fill:#fff5a4}.st36{fill:#fff5a6}.st37{fill:#fff5a7}.st37,.st38,.st39,.st40,.st41{clip-path:url(#SVGID_2_)}.st38{fill:#fff5a9}.st39{fill:#fff6aa}.st40{fill:#fff6ac}.st41{fill:#fff6ad}.st42{fill:#fff6af}.st42,.st43,.st44,.st45,.st46{clip-path:url(#SVGID_2_)}.st43{fill:#fff6b0}.st44{fill:#fff6b2}.st45{fill:#fff7b3}.st46{fill:#fff7b5}.st47{fill:#fff7b6}.st47,.st48,.st49,.st50,.st51{clip-path:url(#SVGID_2_)}.st48{fill:#fff7b7}.st49{fill:#fff7b9}.st50{fill:#fff7ba}.st51{fill:#fff8bc}.st52{fill:#fff8bd}.st52,.st53,.st54,.st55,.st56{clip-path:url(#SVGID_2_)}.st53{fill:#fff8be}.st54{fill:#fff8c0}.st55{fill:#fff8c1}.st56{fill:#fff8c3}.st57{fill:#fff8c4}.st57,.st58,.st59,.st60,.st61{clip-path:url(#SVGID_2_)}.st58{fill:#fff9c5}.st59{fill:#fff9c6}.st60{fill:#fff9c8}.st61{fill:#fff9c9}.st62{fill:#fff9ca}.st62,.st63,.st64,.st65,.st66{clip-path:url(#SVGID_2_)}.st63{fill:#fff9cc}.st64{fill:#fff9cd}.st65{fill:#ffface}.st66{fill:#fffacf}.st67{fill:#fffad0}.st67,.st68,.st69,.st70,.st71{clip-path:url(#SVGID_2_)}.st68{fill:#fffad2}.st69{fill:#fffad3}.st70{fill:#fffad4}.st71{fill:#fffad5}.st72{fill:#fffbd6}.st72,.st73,.st74,.st75,.st76{clip-path:url(#SVGID_2_)}.st73{fill:#fffbd7}.st74{fill:#fffbd9}.st75{fill:#fffbda}.st76{fill:#fffbdb}.st77{fill:#fffbdc}.st77,.st78,.st79,.st80,.st81{clip-path:url(#SVGID_2_)}.st78{fill:#fffbdd}.st79{fill:#fffbde}.st80{fill:#fffbdf}.st81{fill:#fffce0}.st82{fill:#fffce1}.st82,.st83,.st84,.st85,.st86{clip-path:url(#SVGID_2_)}.st83{fill:#fffce2}.st84{fill:#fffce3}.st85{fill:#fffce4}.st86{fill:#fffce5}.st87{fill:#fffce6}.st87,.st88,.st89,.st90,.st91{clip-path:url(#SVGID_2_)}.st88{fill:#fffce7}.st89{fill:#fffce8}.st90{fill:#fffde9}.st91{fill:#fffdea}.st92{fill:#fffdeb}.st92,.st93,.st94,.st95,.st96{clip-path:url(#SVGID_2_)}.st93{fill:#fffdec}.st94{fill:#fffded}.st95{fill:#fffdee}.st96{fill:#fffdef}.st100{clip-path:url(#SVGID_2_)}.st97{fill:#fffdf0}.st97,.st98,.st99{clip-path:url(#SVGID_2_)}.st98{fill:#fffdf1}.st99{fill:#fffef2}.st100{fill:#fffef3}.st101{fill:#fffef4}.st101,.st102,.st103,.st104{clip-path:url(#SVGID_2_)}.st102{fill:#fffef5}.st103{fill:#fffef6}.st104{fill:#fffef7}.st105{fill:#fffef8}.st105,.st106,.st107,.st108{clip-path:url(#SVGID_2_)}.st106{fill:#fffef9}.st107{fill:#fffefa}.st108{fill:#fffffb}.st109{fill:#fffffc}.st109,.st110,.st111,.st112{clip-path:url(#SVGID_2_)}.st110{fill:#fffffd}.st111{fill:#fffffe}.st112{fill:#fff}.st113{fill:#f4d1be}.st114{fill:#ffdfc7}.st115{fill:#d8b6ad}.st116{fill:#efc8b6}.st117{fill:#505656}.st118{fill:#b5b5b5}.st119{fill:#ffccb8}.st120{fill:#484e4e}.st121{fill:#443514}.st122{fill:#deb5a5}.st123{fill:#e8c9bf}.st124{fill:#d86859}.st125{fill:#ce5a4e}.st126{fill:#ddd}.st127{fill:#6d7475}.st128{fill:#515a5b}.st129{fill:#fafafa}.st130{fill:#b84d65}.st131{fill:#c6546d}.st132{fill:#eee}.st133{fill:#434a4c}.st134{fill:#7f6647}.st135{fill:#7a6244}.st136{fill:#846a4a}.st137{fill:#6a777a}.st138{fill:#505c5e}.st139{fill:#61d666}.st140{opacity:.34}.st141{fill:#869093}</style><g class="st0"><path class="st1" d="M674.9 536.9H88.6c-2.8 0-5.1-2.3-5.1-5.1s2.3-5.1 5.1-5.1H675c2.8 0 5.1 2.3 5.1 5.1-.1 2.8-2.4 5.1-5.2 5.1z"/></g><g class="st0"><path class="st1" d="M605 537H202c-2.8 0-5.1-2.3-5.1-5.1s2.3-5.1 5.1-5.1h403c2.8 0 5.1 2.3 5.1 5.1 0 2.9-2.3 5.1-5.1 5.1z"/></g><ellipse class="st2" cx="258.5" cy="527.7" rx="7.2" ry="9.4"/><path class="st3" d="M281.6 497c2.3 2 2.5 5.5.5 7.8l-16.2 18.5c-2 2.3-5.5 2.5-7.8.5s-2.5-5.5-.5-7.8l16.2-18.5c2-2.3 5.5-2.6 7.8-.5z"/><ellipse class="st2" cx="254.8" cy="527.7" rx="7.2" ry="9.4"/><path class="st4" d="M251 521.7c.8-.7 2-.7 2.8 0 1.4 1.3 2.4 3.5 2.4 6 0 2-.6 3.8-1.6 5.1-1.1 1.4-3.3 1.4-4.3 0-1-1.3-1.6-3.1-1.6-5.1-.1-2.5.8-4.7 2.3-6z"/><path class="st5" d="M282.5 499.3c-.8 2.9.9 6 3.9 6.8l58.3 16c2.9.8 6-.9 6.8-3.9.8-2.9-.9-6-3.9-6.8l-58.3-16c-3-.8-6 1-6.8 3.9z"/><ellipse class="st2" cx="347.7" cy="527.7" rx="9.6" ry="9.4"/><path class="st4" d="M344.4 521.7c1.3-.7 3.5-.7 4.8 0 2.5 1.3 4.1 3.5 4.1 6 0 2-1.1 3.8-2.8 5.1-1.9 1.4-5.6 1.4-7.5 0-1.7-1.3-2.8-3.1-2.8-5.1.1-2.5 1.7-4.7 4.2-6z"/><path class="st6" d="M259.1 391.2c0 11.4 9.2 20.6 20.6 20.6 11.4 0 20.6-9.2 20.6-20.6h-41.2z"/><path class="st7" d="M305.2 468.8c-1.9.3-2.6 2.4-3.8 4l-1.3 1.7c-4.2 5.3-7.1 11.6-8.4 18.2l-.8 9 31.7 14.2 38.4 17.7s7.7-20.4-1.3-29c-10.4-10-16.2-24.9-16.2-24.9l-34.8-9.8c-.6-.2-2.1-1.1-2.7-1l-.8-.1z"/><path class="st8" d="M380.9 472l8.8 15.2-31.7 8.7-6.7-10.5 5.4-13.4z"/><path class="st9" d="M350.1 485.1l-6.8 1.2c-2.1.4-4.2 1.2-6 2.4l-5.7 3.8c-.9.3-1.8-.1-2.2-.9-.3-.8.1-1.8.9-2.1l6-3.9c1.6-1.1 3.5-1.8 5.4-2.2l7-1.4c.9-.3 1.8.1 2.2.9.4.9 0 1.9-.8 2.2z"/><path class="st9" d="M353.2 489.3l-6.8 1.2c-2.1.4-4.2 1.2-6 2.4l-5.7 3.8c-.9.3-1.8-.1-2.2-.9-.3-.8.1-1.8.9-2.1l6-3.9c1.6-1.1 3.5-1.8 5.4-2.2l7-1.4c.9-.3 1.8.1 2.2.9.5.9.1 1.8-.8 2.2z"/><path class="st10" d="M492.1 277.1c-1.1 0-1.9-.9-1.9-1.9v-15.1c0-1.1.9-1.9 1.9-1.9 1.1 0 1.9.9 1.9 1.9v15.1c.1 1-.8 1.9-1.9 1.9zm14.8-7.1c-1.1 0-1.9-.9-1.9-1.9v-6.5c0-1.1.9-1.9 1.9-1.9 1.1 0 1.9.9 1.9 1.9v6.5c0 1-.9 1.9-1.9 1.9zm-20.8-4.9c-1.1 0-1.9-.9-1.9-1.9v-7.1c0-1.1.9-1.9 1.9-1.9 1.1 0 1.9.9 1.9 1.9v7.1c0 1.1-.9 1.9-1.9 1.9zm15-2.3c-1.1 0-1.9-.9-1.9-1.9v-10.7c0-1.1.9-1.9 1.9-1.9 1.1 0 1.9.9 1.9 1.9v10.7c.1 1-.8 1.9-1.9 1.9z"/><path class="st11" d="M514.6 291.8c-4.7 0-8.6-3.2-8.6-7.1s3.9-7.1 8.6-7.1c8 0 8.6 3.4 8.6 7.1 0 7.1-5.6 7.1-8.6 7.1zm0-11.3c-3 0-5.6 1.9-5.6 4.1s2.6 4.1 5.6 4.1c4.2 0 5.6-.6 5.6-4.1 0-2.7 0-4.1-5.6-4.1z"/><path class="st12" d="M506 300.6h-17.3c-4.8 0-8.6-3.9-8.6-8.6v-17.2c0-1.1.9-2 2-2h30.5c1.1 0 2 .9 2 2V292c0 4.7-3.9 8.6-8.6 8.6z"/><path class="st13" d="M514.7 303h-34.8c-.7 0-1.2-.5-1.2-1.2s.5-1.2 1.2-1.2h34.8c.7 0 1.2.5 1.2 1.2 0 .6-.5 1.2-1.2 1.2z"/><path class="st14" d="M484.1 290.3v-15.2c0-1.3 1.1-2.4 2.4-2.4h-4.1c-1.3 0-2.4 1.1-2.4 2.4v15.2c0 5.7 4.6 10.3 10.3 10.3h4.1c-5.6 0-10.3-4.7-10.3-10.3z"/><path class="st15" d="M359.1 401H224.7c-6.1 0-11.1-6.6-11.1-14.6s5-14.6 11.1-14.6H359c6.1 0 11.1 6.6 11.1 14.6.1 8.1-4.9 14.6-11 14.6z"/><path class="st16" d="M302.2 322.3h-82c-13.4 0-24.3-10.9-24.3-24.3v-52.1c0-13.4 10.9-24.3 24.3-24.3h82c13.4 0 24.3 10.9 24.3 24.3V298c0 13.3-10.9 24.3-24.3 24.3z"/><path class="st17" d="M293.8 379.7h-70.1c-6.6 0-12-5.4-12-12v-16.9c0-6.6 5.4-12 12-12h70.1c6.6 0 12 5.4 12 12v16.9c0 6.6-5.4 12-12 12z"/><path class="st18" d="M362.6 379.7h-61.1c-6.6 0-12-5.4-12-12v-16.9c0-6.6 5.4-12 12-12h61.1c6.6 0 12 5.4 12 12v16.9c0 6.6-5.4 12-12 12z"/><path class="st19" d="M392.5 373.4l-51.2 107.9c-.6 1.2-2 1.7-3.2 1.1l-36.9-17.5c-1.2-.6-1.7-2-1.1-3.2l51.2-107.9c5.4-11.3 19.1-16.2 30.4-10.8 11.3 5.4 16.2 19.1 10.8 30.4z"/><path class="st2" d="M288.3 504.2h-17.8c-1.1 0-2-.9-2-2v-4.6c0-1.1.9-2 2-2h17.8c1.1 0 2 .9 2 2v4.6c0 1.1-.9 2-2 2z"/><path class="st20" d="M360.6 531.6L326 516.7h-.1l-34.6-14.9c-1.1-.5-2.4.4-3.1 1.8-.6 1.5-.3 3 .8 3.5l34.6 14.9h.1l34.6 14.9c1.1.5 2.4-.4 3.1-1.8.6-1.4.3-3-.8-3.5z"/><path class="st17" d="M311.7 352.4l71.6 118.1c.7 1.1.3 2.6-.8 3.3l-35 21.2c-1.1.7-2.6.3-3.3-.8L272.7 376c-6.5-10.7-3.1-24.8 7.7-31.4 10.7-6.4 24.8-3 31.3 7.8z"/><path class="st21" d="M336.1 329.7l-100.1 7 1.1-144.7 66.5-34.1 44.3 50.8z"/><path class="st22" d="M280.5 199.8c-8.7 0-15.8-7.1-15.8-15.8 0-8.7 7.1-15.8 15.8-15.8 8.7 0 15.8 7.1 15.8 15.8 0 8.7-7.1 15.8-15.8 15.8z"/><path class="st21" d="M237.2 192s-11.2 4.5-15 17.6c-2.2 7.5-3.7 17.4-4.4 27.7l26.4 6.8 3.3-28.9-10.3-23.2z"/><g class="st23"><defs><path id="SVGID_1_" d="M214.9 210L170.4 86.3l122.2-70 193.5 150.2-169.5 104.9z"/></defs><clipPath id="SVGID_2_"><use xlink:href="#SVGID_1_" overflow="visible"/></clipPath><path class="st24" d="M365.6 271.4l120.5-94.1v94.1zm-4.7 0l125.2-97.8v3.7l-120.5 94.1z"/><path class="st25" d="M356.2 271.4l129.9-101.5v3.7l-125.2 97.8z"/><path class="st26" d="M351.5 271.4l134.6-105.2v3.7L356.2 271.4z"/><path class="st27" d="M346.7 271.4l138.8-108.5.6.6v2.7L351.5 271.4z"/><path class="st28" d="M342 271.4l141.6-110.6 1.9 2.1-138.8 108.5z"/><path class="st29" d="M337.3 271.4l144.3-112.8 2 2.2L342 271.4z"/><path class="st30" d="M332.6 271.4l147.1-115 1.9 2.2-144.3 112.8z"/><path class="st31" d="M327.9 271.4l149.8-117.1 2 2.1-147.1 115z"/><path class="st32" d="M323.1 271.4l152.7-119.3 1.9 2.2-149.8 117.1z"/><path class="st33" d="M318.4 271.4l155.4-121.5 2 2.2-152.7 119.3z"/><path class="st34" d="M313.7 271.4l158.2-123.6 1.9 2.1-155.4 121.5z"/><path class="st35" d="M309 271.4l160.9-125.8 2 2.2-158.2 123.6z"/><path class="st36" d="M304.2 271.4l163.8-128 1.9 2.2L309 271.4z"/><path class="st37" d="M299.5 271.4L466 141.3l2 2.1-163.8 128z"/><path class="st38" d="M294.8 271.4l169.3-132.3 1.9 2.2-166.5 130.1z"/><path class="st39" d="M290.1 271.4l172-134.5 2 2.2-169.3 132.3z"/><path class="st40" d="M285.3 271.4l174.9-136.6 1.9 2.1-172 134.5z"/><path class="st41" d="M280.6 271.4l177.6-138.8 2 2.2-174.9 136.6z"/><path class="st42" d="M275.9 271.4l180.4-141 1.9 2.2-177.6 138.8z"/><path class="st43" d="M271.2 271.4l183.1-143.1 2 2.1-180.4 141z"/><path class="st44" d="M267.5 271.4l-.4-.5 185.3-144.8 1.9 2.2-183.1 143.1z"/><path class="st45" d="M267.1 270.9l-2-2.2 185.3-144.8 2 2.2z"/><path class="st46" d="M265.1 268.7l-1.9-2.1 185.3-144.8 1.9 2.1z"/><path class="st47" d="M263.2 266.6l-2-2.2 185.3-144.8 2 2.2z"/><path class="st48" d="M261.2 264.4l-1.9-2.2 185.3-144.8 1.9 2.2z"/><path class="st49" d="M259.3 262.2l-2-2.1 185.3-144.8 2 2.1z"/><path class="st50" d="M257.3 260.1l-1.9-2.2 185.3-144.8 1.9 2.2z"/><path class="st51" d="M255.4 257.9l-2-2.2 185.3-144.8 2 2.2z"/><path class="st52" d="M253.4 255.7l-1.9-2.1 185.3-144.8 1.9 2.1z"/><path class="st53" d="M251.5 253.6l-2-2.2 185.3-144.8 2 2.2z"/><path class="st54" d="M249.5 251.4l-1.9-2.2 185.3-144.8 1.9 2.2z"/><path class="st55" d="M247.6 249.2l-2-2.1 185.3-144.9 2 2.2z"/><path class="st56" d="M245.6 247.1l-1.9-2.2L429 100.1l1.9 2.1z"/><path class="st57" d="M243.7 244.9l-2-2.2L427 97.9l2 2.2z"/><path class="st58" d="M241.7 242.7l-1.9-2.1L425.1 95.7l1.9 2.2z"/><path class="st59" d="M239.8 240.6l-2-2.2L423.1 93.6l2 2.1z"/><path class="st60" d="M237.8 238.4l-2-2.2L421.1 91.4l2 2.2z"/><path class="st61" d="M235.8 236.2l-1.9-2.1L419.2 89.2l1.9 2.2z"/><path class="st62" d="M233.9 234.1l-2-2.2L417.2 87.1l2 2.1z"/><path class="st63" d="M231.9 231.9l-1.9-2.2L415.3 84.9l1.9 2.2z"/><path class="st64" d="M230 229.7l-2-2.1L413.3 82.7l2 2.2z"/><path class="st65" d="M228 227.6l-1.9-2.2L411.4 80.6l1.9 2.1z"/><path class="st66" d="M226.1 225.4l-2-2.2L409.4 78.4l2 2.2z"/><path class="st67" d="M224.1 223.2l-1.9-2.1L407.5 76.2l1.9 2.2z"/><path class="st68" d="M222.2 221.1l-2-2.2L405.5 74.1l2 2.1z"/><path class="st69" d="M220.2 218.9l-1.9-2.2L403.6 71.9l1.9 2.2z"/><path class="st70" d="M218.3 216.7l-2-2.1L401.6 69.7l2 2.2z"/><path class="st71" d="M216.3 214.6l-1.9-2.2L399.7 67.6l1.9 2.1z"/><path class="st72" d="M214.4 212.4l-2-2.2L397.7 65.4l2 2.2z"/><path class="st73" d="M212.4 210.2l-1.9-2.1L395.8 63.2l1.9 2.2z"/><path class="st74" d="M210.5 208.1l-2-2.2L393.8 61.1l2 2.1z"/><path class="st75" d="M208.5 205.9l-1.9-2.2L391.9 58.9l1.9 2.2z"/><path class="st76" d="M206.6 203.7l-2-2.1L389.9 56.7l2 2.2z"/><path class="st77" d="M204.6 201.6l-1.9-2.2L388 54.6l1.9 2.1z"/><path class="st78" d="M202.7 199.4l-2-2.2L386 52.4l2 2.2z"/><path class="st79" d="M200.7 197.2l-1.9-2.1L384.1 50.2l1.9 2.2z"/><path class="st80" d="M198.8 195.1l-2-2.2L382.1 48.1l2 2.1z"/><path class="st81" d="M196.8 192.9l-1.9-2.2L380.2 45.9l1.9 2.2z"/><path class="st82" d="M194.9 190.7l-2-2.1L378.2 43.7l2 2.2z"/><path class="st83" d="M192.9 188.6l-1.9-2.2L376.3 41.6l1.9 2.1z"/><path class="st84" d="M191 186.4l-2-2.2L374.3 39.4l2 2.2z"/><path class="st85" d="M189 184.2l-1.9-2.1L372.4 37.2l1.9 2.2z"/><path class="st86" d="M187.1 182.1l-2-2.2L370.4 35.1l2 2.1z"/><path class="st87" d="M185.1 179.9l-1.9-2.2L368.5 32.9l1.9 2.2z"/><path class="st88" d="M183.2 177.7l-2-2.1L366.5 30.7l2 2.2z"/><path class="st89" d="M181.2 175.6l-1.9-2.2L364.6 28.6l1.9 2.1z"/><path class="st90" d="M179.3 173.4l-2-2.2L362.6 26.4l2 2.2z"/><path class="st91" d="M177.3 171.2l-1.9-2.1L360.7 24.2l1.9 2.2z"/><path class="st91" d="M175.4 169.1l-2-2.2L358.7 22.1l2 2.1z"/><path class="st92" d="M173.4 166.9l-1.9-2.2L356.8 19.9l1.9 2.2z"/><path class="st93" d="M171.5 164.7l-1.1-1.2v-1.6L354.8 17.7l2 2.2z"/><path class="st94" d="M170.4 158.2L351.9 16.3h1.6l1.3 1.4-184.4 144.2z"/><path class="st95" d="M170.4 154.5L347.2 16.3h4.7L170.4 158.2z"/><path class="st96" d="M170.4 150.8l172-134.5h4.8L170.4 154.5zm0-3.7L337.7 16.3h4.7l-172 134.5z"/><path class="st97" d="M170.4 143.4L333 16.3h4.7L170.4 147.1z"/><path class="st98" d="M170.4 139.7L328.3 16.3h4.7L170.4 143.4z"/><path class="st99" d="M170.4 136L323.6 16.3h4.7L170.4 139.7z"/><path class="st99" d="M170.4 132.3l148.4-116h4.8L170.4 136z"/><path class="st100" d="M170.4 128.6L314.1 16.3h4.7l-148.4 116z"/><path class="st101" d="M170.4 124.9l139-108.6h4.7L170.4 128.6z"/><path class="st101" d="M170.4 121.3l134.3-105h4.7l-139 108.6z"/><path class="st102" d="M170.4 117.6L299.9 16.3h4.8l-134.3 105z"/><path class="st103" d="M170.4 113.9l124.8-97.6h4.7L170.4 117.6zm0-3.7l120.1-93.9h4.7l-124.8 97.6z"/><path class="st104" d="M170.4 106.5l115.4-90.2h4.7l-120.1 93.9z"/><path class="st104" d="M170.4 102.8L281 16.3h4.8l-115.4 90.2z"/><path class="st105" d="M170.4 99.1l105.9-82.8h4.7l-110.6 86.5z"/><path class="st106" d="M170.4 95.4l101.2-79.1h4.7L170.4 99.1zm0-3.7l96.5-75.4h4.7L170.4 95.4z"/><path class="st107" d="M170.4 88l91.7-71.7h4.8l-96.5 75.4zm0-3.7l87-68h4.7L170.4 88z"/><path class="st108" d="M170.4 80.6l82.3-64.3h4.7l-87 68zm0-3.7L248 16.3h4.7l-82.3 64.3z"/><path class="st108" d="M170.4 73.3l72.8-57h4.8l-77.6 60.6z"/><path class="st109" d="M170.4 69.6l68.1-53.3h4.7l-72.8 57z"/><path class="st109" d="M170.4 65.9l63.4-49.6h4.7l-68.1 53.3z"/><path class="st110" d="M170.4 62.2l58.7-45.9h4.7l-63.4 49.6zm0-3.7l54-42.2h4.7l-58.7 45.9z"/><path class="st110" d="M170.4 54.8l49.2-38.5h4.8l-54 42.2z"/><path class="st111" d="M170.4 51.1l44.5-34.8h4.7l-49.2 38.5zm0-3.7l39.8-31.1h4.7l-44.5 34.8zm0-3.7l35.1-27.4h4.7l-39.8 31.1z"/><path class="st111" d="M170.4 40l30.3-23.7h4.8l-35.1 27.4z"/><path class="st112" d="M170.4 36.3l25.6-20h4.7L170.4 40z"/><path class="st112" d="M170.4 32.6l20.9-16.3h4.7l-25.6 20zm0-3.6l16.2-12.7h4.7l-20.9 16.3z"/><path class="st112" d="M170.4 25.3l11.4-9h4.8L170.4 29zm0-3.7l6.7-5.3h4.7l-11.4 9z"/><path class="st112" d="M177.1 16.3l-6.7 5.3v-5.3z"/></g><path class="st113" d="M366.7 304.4l-8.4 2c-3.5.8-7.1-1.3-7.9-4.8L337.2 247l21.2-5.1 13.2 54.6c.7 3.5-1.4 7.1-4.9 7.9z"/><path class="st114" d="M365.7 302.9h-20.4c-3 0-5.5-2.5-5.5-5.5v-4.7c0-3 2.5-5.5 5.5-5.5h20.4c3 0 5.5 2.5 5.5 5.5v4.7c0 3-2.4 5.5-5.5 5.5z"/><path class="st115" d="M355.6 301.4h-13.2c-3 0-5.5-2.5-5.5-5.5v-4.7c0-3 2.5-5.5 5.5-5.5h13.2c3 0 5.5 2.5 5.5 5.5v4.7c0 3-2.5 5.5-5.5 5.5z"/><path class="st116" d="M344.6 295.5h1.7c1.1 0 2.1-.9 2.1-2.1v-10c0-1.1-.9-2.1-2.1-2.1h-1.7c-1.1 0-2.1.9-2.1 2.1v10c0 1.2 1 2.1 2.1 2.1z"/><path class="st116" d="M350.5 293h1.7c1.1 0 2.1-.9 2.1-2.1v-7.8c0-1.1-.9-2.1-2.1-2.1h-1.7c-1.1 0-2.1.9-2.1 2.1v7.8c0 1.2 1 2.1 2.1 2.1z"/><path class="st116" d="M356.4 295.3h1.7c1.1 0 2.1-.9 2.1-2.1v-6.9c0-1.1-.9-2.1-2.1-2.1h-1.7c-1.1 0-2.1.9-2.1 2.1v6.9c0 1.2 1 2.1 2.1 2.1zm-17.7-3.6h1.7c1.1 0 2.1-.9 2.1-2.1l.1-7.8c0-1.1-.9-2.1-2.1-2.1h-1.7c-1.1 0-2.1.9-2.1 2.1l-.1 7.8c0 1.1.9 2.1 2.1 2.1z"/><path class="st117" d="M254.4 163.3s0 12-5.4 15.3c-5.3 3.2 5.3 2.4 5.3 2.4s10.5-.9 8.7-6.6c-1.6-5.7-8.6-11.1-8.6-11.1z"/><path class="st117" d="M251.5 157.5s0 12-5.4 15.3c-5.3 3.2 5.3 2.4 5.3 2.4s10.5-.9 8.7-6.6c-1.7-5.8-8.6-11.1-8.6-11.1z"/><path class="st118" d="M242.4 134.6c-4.2 0-7.6-3.4-7.6-7.6V91.8c0-4.2 3.4-7.6 7.6-7.6 4.2 0 7.6 3.4 7.6 7.6V127c.1 4.2-3.4 7.6-7.6 7.6z"/><path class="st118" d="M244.8 134.6c-4.2 0-7.6-3.4-7.6-7.6V81c0-4.2 3.4-7.6 7.6-7.6 4.2 0 7.6 3.4 7.6 7.6v46c.1 4.2-3.4 7.6-7.6 7.6zm77.6 5.9c-4.2 0-7.6-3.4-7.6-7.6v-46c0-4.2 3.4-7.6 7.6-7.6 4.2 0 7.6 3.4 7.6 7.6v46c0 4.1-3.4 7.6-7.6 7.6z"/><path class="st119" d="M240.1 140.1c-4.2 0-7.6-3.4-7.6-7.6V124c0-4.2 3.4-7.6 7.6-7.6 4.2 0 7.6 3.4 7.6 7.6v8.4c0 4.2-3.4 7.7-7.6 7.7zm88.3 0c-4.2 0-7.6-3.4-7.6-7.6V124c0-4.2 3.4-7.6 7.6-7.6 4.2 0 7.6 3.4 7.6 7.6v8.4c.1 4.2-3.4 7.7-7.6 7.7z"/><path class="st114" d="M284.8 189c-24 0-43.7-19.7-43.7-43.7v-42.1c0-18.8 15.4-34.1 34.1-34.1h19.1c18.8 0 34.1 15.4 34.1 34.1v42.1c0 24.1-19.6 43.7-43.6 43.7z"/><path class="st119" d="M293.6 147.5c-2.6.3-4.9-1.6-5.2-4.2l-1-9c-.3-2.6 1.6-4.9 4.2-5.2 2.6-.3 4.9 1.6 5.2 4.2l1 9c.3 2.6-1.6 4.9-4.2 5.2z"/><path class="st120" d="M279.7 66.1h19.7V82h-19.7z"/><circle class="st121" cx="268.6" cy="124" r="3.9"/><circle class="st121" cx="306.1" cy="124" r="3.9"/><path class="st117" d="M257.1 112.2c-.3 0-.5-.1-.8-.2-.7-.4-.9-1.3-.5-2 .2-.3 3.9-6.1 14.1-3.9.8.2 1.3 1 1.1 1.8-.2.8-1 1.3-1.8 1.1-8-1.8-10.8 2.3-10.9 2.5-.2.5-.7.7-1.2.7zm44.1-2.2c-.2-.1-.4-.2-.6-.5-.4-.6-.3-1.4.3-1.9.2-.2 5.3-3.9 13.2 1.5.6.4.8 1.3.4 1.9-.4.6-1.3.8-1.9.4-6.2-4.2-9.9-1.6-10-1.5-.5.2-.9.3-1.4.1zm-60.7 30.5c-1.1 0-1.9-.9-1.9-1.9V110c0-1.1.9-1.9 1.9-1.9 1.1 0 1.9.9 1.9 1.9v28.6c0 1-.8 1.9-1.9 1.9z"/><path class="st117" d="M243.3 136.6c-1.8 0-3.2-1.4-3.2-3.2v-21.3c0-1.8 1.4-3.2 3.2-3.2 1.8 0 3.2 1.4 3.2 3.2v21.3c0 1.8-1.5 3.2-3.2 3.2z"/><path class="st117" d="M235.5 118.3c-.8-.6-.9-1.7-.2-2.4l3.9-3.9c.7-.7 1.9-.8 2.7-.1.8.6.9 1.7.2 2.4l-3.9 3.9c-.7.7-1.9.7-2.7.1z"/><path class="st117" d="M240.5 136.6c-1.1 0-1.9-.9-1.9-1.9v-24.8c0-1.1.9-1.9 1.9-1.9 1.1 0 1.9.9 1.9 1.9v24.8c0 1-.8 1.9-1.9 1.9z"/><path class="st117" d="M243.3 133.2c-1.8 0-3.2-1.4-3.2-3.2v-18c0-1.8 1.4-3.2 3.2-3.2 1.8 0 3.2 1.4 3.2 3.2v18c0 1.8-1.5 3.2-3.2 3.2zm91.9-15.4c.8-.7.9-1.9.2-2.7l-3.9-4.4c-.7-.8-1.9-.9-2.7-.2-.8.7-.9 1.9-.2 2.7l3.9 4.4c.6.8 1.9.9 2.7.2z"/><path class="st117" d="M330.1 136.6c1.1 0 1.9-.9 1.9-1.9v-33c0-1.1-.9-1.9-1.9-1.9-1.1 0-1.9.9-1.9 1.9v33c0 1 .9 1.9 1.9 1.9z"/><path class="st117" d="M327.4 132.3c1.8 0 3.2-1.4 3.2-3.2v-25c0-1.8-1.4-3.2-3.2-3.2-1.8 0-3.2 1.4-3.2 3.2v25c0 1.7 1.4 3.2 3.2 3.2z"/><path class="st118" d="M241.1 106.2s10.3-3 15.3-27c5-24.1-3.3-26-3.3-26s-16.8 6.4-18.2 38"/><path class="st122" d="M295.3 165.1c.7-4.7-2.9-9-7.6-9.1-5.8-.1-13.2-1.2-17.7-3.6-7.7-4.2-12 4.7-8.6 12.4 3.5 7.8 11.6 14.5 23.4 12.3 6.5-1.1 9.7-5.9 10.5-12z"/><path class="st120" d="M288.2 53.2s-13.7-7.4-35.1.3c-.6.2-1.2.4-1.8.7-16.5 6.7-26.1 23.6-24.6 41 .5 5.5.1 11-1.3 16.4l-1.8 6.9c0-.1 71.9-18.1 64.6-65.3z"/><path class="st117" d="M289.3 54s-7.9-8.3-29.3-.7c-.6.2-1.2.4-1.8.7-16.5 6.7-26.1 23.6-24.6 41 .5 5.5.1 11-1.3 16.4l-1.8 6.9c.1 0 66.2-17 58.8-64.3z"/><path class="st117" d="M289.3 54s7.9-8.3 29.3-.7c.6.2 1.2.4 1.8.7 16.5 6.7 26.1 23.6 24.6 41-.5 5.5-.1 11 1.3 16.4l1.8 6.9c-.1 0-66.2-17-58.8-64.3z"/><path class="st123" d="M286 188.1v-.2c.1-1.2-.8-2.2-1.9-2.3l-7.8-.7c-1.2-.1-2.2.8-2.3 1.9v.2c2.4.6 4.8 1 7.4 1.2 1.5-.1 3.1-.1 4.6-.1z"/><path class="st113" d="M247.9 299.8h-1.7c-1.1 0-2.1-.9-2.1-2.1v-6.1c0-1.1.9-2.1 2.1-2.1h1.7c1.1 0 2.1.9 2.1 2.1v6.1c0 1.1-1 2.1-2.1 2.1z"/><path class="st113" d="M247.9 299.8h-1.7c-1.1 0-2.1-.9-2.1-2.1v-6.1c0-1.1.9-2.1 2.1-2.1h1.7c1.1 0 2.1.9 2.1 2.1v6.1c0 1.1-1 2.1-2.1 2.1zm-23.3 2.3l-8.5-1.4c-3.6-.6-6-4-5.4-7.5l9.1-55.4 21.5 3.5-9.1 55.4c-.7 3.5-4.1 6-7.6 5.4z"/><path class="st114" d="M255.7 302.9h-39.5c-3 0-5.5-2.5-5.5-5.5v-4.7c0-3 2.5-5.5 5.5-5.5h39.5c3 0 5.5 2.5 5.5 5.5v4.7c0 3-2.5 5.5-5.5 5.5z"/><path class="st124" d="M240.6 302.9v-7.5c0-3.6 3-6.6 6.6-6.5h9.5c3.6 0 6.6 3 6.5 6.6v7.5l-22.6-.1z"/><path class="st125" d="M251 289.3h.2v13.6h-.2z"/><path class="st116" d="M249.1 301.7h-1.7c-1.1 0-2.1-.9-2.1-2.1v-10c0-1.1.9-2.1 2.1-2.1h1.7c1.1 0 2.1.9 2.1 2.1v10c-.1 1.2-1 2.1-2.1 2.1zm14.2-.2c-1.4 0-2.5-1.1-2.5-2.5v-1.9c0-1.4 1.1-2.5 2.5-2.5s2.5 1.1 2.5 2.5v1.9c0 1.4-1.1 2.5-2.5 2.5z"/><path class="st116" d="M243.4 299.8h-1.7c-1.1 0-2.1-.9-2.1-2.1v-7.8c0-1.1.9-2.1 2.1-2.1h1.7c1.1 0 2.1.9 2.1 2.1v7.8c0 1.1-.9 2.1-2.1 2.1zm12-4.3l-1.7.2c-1.1.1-2.2-.7-2.3-1.8l-1-7.7c-.1-1.1.7-2.2 1.8-2.3l1.7-.2c1.1-.1 2.2.7 2.3 1.8l1 7.7c.2 1.1-.6 2.2-1.8 2.3z"/><path class="st124" d="M238.4 302.9v-9.2c0-3.6 3-6.6 6.6-6.5h12.3c3.6 0 6.6 3 6.5 6.6v9.2l-25.4-.1z"/><path class="st125" d="M250.8 287.7h.2V303h-.2z"/><path class="st116" d="M248.1 301.7h-2.4c-1.1 0-2.1-.9-2.1-2.1v-11.8c0-1.1.9-2.1 2.1-2.1h2.4c1.1 0 2.1.9 2.1 2.1v11.8c0 1.1-.9 2.1-2.1 2.1zm15.8-.3c-1.5 0-2.8-1.2-2.8-2.8v-2.1c0-1.5 1.2-2.8 2.8-2.8 1.5 0 2.8 1.2 2.8 2.8v2.1c0 1.5-1.3 2.8-2.8 2.8z"/><path class="st116" d="M241.8 299.5h-2.4c-1.1 0-2.1-.9-2.1-2.1v-9.3c0-1.1.9-2.1 2.1-2.1h2.4c1.1 0 2.1.9 2.1 2.1v9.3c0 1.1-1 2.1-2.1 2.1zm13.5-4.8l-2.4.3c-1.1.1-2.2-.7-2.3-1.8l-1.2-9.2c-.1-1.1.7-2.2 1.8-2.3l2.4-.3c1.1-.1 2.2.7 2.3 1.8l1.2 9.2c.1 1.1-.7 2.1-1.8 2.3z"/><path class="st126" d="M403.1 303h-129c-.5 0-1-.5-1-1v-3.3c0-1.7 1.4-3.1 3.1-3.1H401c1.7 0 3.1 1.4 3.1 3.1v3.3c0 .5-.4 1-1 1z"/><path class="st127" d="M431.9 303h-68.2c-.6 0-1-.5-1-1v-3.3c0-1.7 1.4-3.1 3.1-3.1h63.9c1.7 0 3.1 1.4 3.1 3.1v3.3c.1.5-.4 1-.9 1z"/><path class="st1" d="M479.3 273H320.2c-3.9 0-7-3.1-7-7v-99c0-3.9 3.1-7 7-7h159.1c3.9 0 7 3.1 7 7v99c0 3.9-3.2 7-7 7z"/><path class="st1" d="M479.3 273H320.2c-3.9 0-7-3.1-7-7v-99c0-3.9 3.1-7 7-7h159.1c3.9 0 7 3.1 7 7v99c0 3.9-3.2 7-7 7z"/><path class="st127" d="M448.2 251.1h-78.9c-3.8 0-7-3.1-7-7v-43.2c0-3.8 3.2-7 7-7h78.9c3.9 0 7 3.2 7 7v43.2c0 3.8-3.2 7-7 7z"/><path class="st128" d="M413.1 300.9c-3.3 0-6.1-2.7-6.1-6.1V224c0-3.3 2.7-6.1 6.1-6.1 3.3 0 6.1 2.7 6.1 6.1v70.8c0 3.4-2.8 6.1-6.1 6.1z"/><path class="st1" d="M444.4 303h-68.2c-.6 0-1-.5-1-1v-3.3c0-1.7 1.4-3.1 3.1-3.1h63.9c1.7 0 3.1 1.4 3.1 3.1v3.3c.1.5-.4 1-.9 1z"/><path class="st129" d="M561.9 269.7h61.6v30.5h-61.6z"/><path class="st130" d="M569.2 303H554c-1.6 0-2.9-1.3-2.9-2.9v-31.2c0-1.6 1.3-2.9 2.9-2.9h15.3c.5 0 1 .5 1 1v35c-.1.5-.5 1-1.1 1z"/><path class="st131" d="M624.1 271.4h-53.6c-1.5 0-2.8-1.3-2.8-2.8 0-1.5 1.3-2.8 2.8-2.8h53.6c1.5 0 2.8 1.3 2.8 2.8 0 1.5-1.3 2.8-2.8 2.8z"/><path class="st131" d="M567.7 300.8V268c0-1.2 1-2.1 2.1-2.1 1.2 0 2.1 1 2.1 2.1v32.9c0 1.2-1 2.1-2.1 2.1-1.2 0-2.1-1-2.1-2.2z"/><path class="st131" d="M624.1 303h-53.6c-1.5 0-2.8-1.3-2.8-2.8 0-1.5 1.3-2.8 2.8-2.8h53.6c1.5 0 2.8 1.3 2.8 2.8 0 1.5-1.3 2.8-2.8 2.8z"/><path class="st132" d="M596.7 275.4h26.9v.4h-26.9zm0 1.5h26.9v.4h-26.9zm8.1 5.7h18.7v.4h-18.7zm-8.1 9.7h26.9v.4h-26.9zm4.2 1.6h22.7v.3h-22.7z"/><path class="st8" d="M307.2 467.8s-4.3 9 3.7 11.6c1.8.6 7.4 2.1 9.5 2.5 7.3 1.5 13.2-1.6 13.2-1.6l-26.4-12.5z"/><path class="st134" d="M401.6 506.2c-2.8 2.1-6.9 1.5-9-1.4l-9.6-13.1c-2.1-2.8-1.5-6.9 1.4-9 2.8-2.1 6.9-1.5 9 1.4l9.6 13.1c2.1 2.9 1.5 6.9-1.4 9zm-36.3 15.4c3.5-.6 5.9-3.9 5.3-7.4l-2.7-16c-.6-3.5-3.9-5.9-7.4-5.3-3.5.6-5.9 3.9-5.3 7.4l2.7 16c.6 3.5 3.9 5.9 7.4 5.3z"/><path class="st135" d="M369.8 505.6l18.6-7.9c1.1-.5 1.6-1.9.9-3l-5.8-10.1c-.4-.7-1.1-1.1-1.8-1.1h-.5c-5.9.1-11.4 2.3-15.6 6.4l-.9.9c-.5.5-.8 1.3-.6 2.1l3 11.3c.2 1.2 1.6 1.8 2.7 1.4z"/><path class="st136" d="M411.4 513.4l-47.7 20.2c-.6.2-1.2 0-1.5-.6l-2.6-6.1c-5.7-13.5 2.9-24.4 16.6-30.2 13.7-5.8 27.5-4.5 33.3 9l2.5 6c.3.6 0 1.4-.6 1.7z"/><path class="st20" d="M413.8 515.5l-50.1 21.2c-1.5.7-3.3 0-3.9-1.5-.6-1.5.1-3.2 1.7-3.8l50.1-21.2c1.5-.7 3.3 0 3.9 1.5.6 1.4-.2 3.1-1.7 3.8z"/><path class="st9" d="M385.9 492.3l-6.7 1.3c-2.1.4-4.2 1.3-6 2.5l-5.6 3.9c-.9.4-1.8 0-2.2-.9-.4-.8.1-1.8.9-2.2l6-4c1.6-1.1 3.4-1.9 5.3-2.3l7-1.5c.9-.4 1.8 0 2.2.9.4 1-.1 2-.9 2.3z"/><path class="st9" d="M384.2 488.2l-6.7 1.3c-2.1.4-4.2 1.3-6 2.5l-5.6 3.9c-.9.4-1.8 0-2.2-.9-.4-.8.1-1.8.9-2.2l6-4c1.6-1.1 3.4-1.9 5.3-2.3l7-1.5c.9-.4 1.8 0 2.2.9.4 1 0 2-.9 2.3z"/><path class="st5" d="M279.7 494.6c-3 0-5.5-2.5-5.5-5.5v-78.3c0-3 2.5-5.5 5.5-5.5s5.5 2.5 5.5 5.5v78.3c0 3-2.5 5.5-5.5 5.5z"/><path class="st6" d="M283.4 496.8H276c-1.3 0-2.4-1.1-2.4-2.4 0-1.3 1.1-2.4 2.4-2.4h7.4c1.3 0 2.4 1.1 2.4 2.4 0 1.3-1.1 2.4-2.4 2.4z"/><path class="st5" d="M277 499.3c.8 2.9-.9 6-3.9 6.8l-58.3 16c-2.9.8-6-.9-6.8-3.9-.8-2.9.9-6 3.9-6.8l58.3-16c2.9-.8 6 1 6.8 3.9z"/><ellipse class="st2" cx="210.5" cy="527.7" rx="7.2" ry="9.4"/><ellipse class="st2" cx="214.2" cy="527.7" rx="7.2" ry="9.4"/><path class="st4" d="M218 521.7c-.8-.7-2-.7-2.8 0-1.4 1.3-2.4 3.5-2.4 6 0 2 .6 3.8 1.6 5.1 1.1 1.4 3.3 1.4 4.3 0 1-1.3 1.6-3.1 1.6-5.1.1-2.5-.9-4.7-2.3-6z"/><path class="st5" d="M583.4 303c3.1 0 5.6 2.5 5.6 5.6v1.5c0 3.1-2.5 5.6-5.6 5.6H145.9c-3.1 0-5.6-2.5-5.6-5.6v-1.5c0-3.1 2.5-5.6 5.6-5.6"/><path class="st5" d="M581.9 312.3h65.9v59.6h-65.9z"/><path class="st5" d="M576.3 531.2V308.8c0-3.2 2.5-5.8 5.6-5.8 3.1 0 5.6 2.6 5.6 5.8v222.4c0 3.2-2.5 5.8-5.6 5.8-3.1 0-5.6-2.6-5.6-5.8z"/><path class="st137" d="M642.2 499.1V308.5c0-3.1 2.5-5.6 5.6-5.6 3.1 0 5.6 2.5 5.6 5.6v190.6c0 3.1-2.5 5.6-5.6 5.6-3.1-.1-5.6-2.6-5.6-5.6z"/><path class="st137" d="M642.2 532.4V307.6c0-2.6 2.1-4.7 4.7-4.7h1.8c2.6 0 4.7 2.1 4.7 4.7v224.8c0 2.6-2.1 4.7-4.7 4.7h-1.8c-2.6-.1-4.7-2.2-4.7-4.7z"/><path class="st1" d="M191.6 314.9h450.6v27.2H191.6z"/><path class="st5" d="M158.7 312.3h65.9v59.6h-65.9z"/><path class="st5" d="M153.1 531.2V308.8c0-3.2 2.5-5.8 5.6-5.8 3.1 0 5.6 2.6 5.6 5.8v222.4c0 3.2-2.5 5.8-5.6 5.8-3.1 0-5.6-2.6-5.6-5.8z"/><path class="st137" d="M219 499.1V308.5c0-3.1 2.5-5.6 5.6-5.6 3.1 0 5.6 2.5 5.6 5.6v190.6c0 3.1-2.5 5.6-5.6 5.6-3.1-.1-5.6-2.6-5.6-5.6z"/><path class="st137" d="M219 531.2V308.8c0-3.2 2.5-5.8 5.6-5.8 3.1 0 5.6 2.6 5.6 5.8v222.4c0 3.2-2.5 5.8-5.6 5.8-3.1 0-5.6-2.6-5.6-5.8z"/><path class="st16" d="M662.1 302.9c3.1 0 5.6 2.5 5.6 5.6v1.6c0 3.1-2.5 5.6-5.6 5.6H220.5c-3.1 0-5.6-2.5-5.6-5.6v-1.6c0-3.1 2.5-5.6 5.6-5.6"/><path class="st4" d="M234 422.2h41.9c.7 0 1.3.6 1.3 1.3 0 .7-.6 1.3-1.3 1.3H234c-.7 0-1.3-.6-1.3-1.3-.1-.7.5-1.3 1.3-1.3z"/><path class="st4" d="M236.1 426.9h4.1c1.9 0 3.5-1.6 3.5-3.5s-1.6-3.5-3.5-3.5h-4.1c-1.9 0-3.5 1.6-3.5 3.5 0 2 1.6 3.5 3.5 3.5z"/><path class="st1" d="M559.4 537H454.7c-3.9 0-7-3.1-7-7V398.2c0-3.9 3.1-7 7-7h104.7c3.9 0 7 3.1 7 7V530c0 3.8-3.1 7-7 7z"/><path class="st5" d="M566.4 528.6V399.5c0-4.6-3.8-8.3-8.3-8.3H502c-4.6 0-8.3 3.8-8.3 8.3v129.1c0 4.6 3.8 8.3 8.3 8.3h56.1c4.6.1 8.3-3.7 8.3-8.3z"/><path class="st1" d="M555.6 427.8h-23.8c-2.9 0-5.3-2.4-5.3-5.3v-19.2c0-2.9 2.4-5.3 5.3-5.3h23.8c2.9 0 5.3 2.4 5.3 5.3v19.2c-.1 2.9-2.4 5.3-5.3 5.3z"/><path class="st16" d="M556.9 455.8H508c-1.1 0-2-.9-2-2s.9-2 2-2h48.9c1.1 0 2 .9 2 2s-.9 2-2 2zm-4.8-10.2v-9.3c0-.2.2-.4.4-.4h3.1c.2 0 .4.2.4.4v9.3c0 .2-.2.4-.4.4h-3.1c-.2 0-.4-.2-.4-.4zm-8.1-.6v-8.1c0-.2.2-.4.4-.4h3.1c.2 0 .4.2.4.4v8.1c0 .2-.2.4-.4.4h-3.1c-.2 0-.4-.2-.4-.4zm12.9 19.1H508c-1.1 0-2-.9-2-2s.9-2 2-2h48.9c1.1 0 2 .9 2 2s-.9 2-2 2zm3.3 62.2h-60.3c-1.1 0-2-.9-2-2s.9-2 2-2h60.3c1.1 0 2 .9 2 2-.1 1.1-1 2-2 2z"/><path class="st1" d="M545.4 445.6v-9.3c0-.2.2-.4.4-.4h3.1c.2 0 .4.2.4.4v9.3c0 .2-.2.4-.4.4h-3.1c-.2 0-.4-.2-.4-.4z"/><path class="st138" d="M549.3 445.5v-9.2c0-.3-.2-.5-.5-.5h-1.1c-.3 0-.5.2-.5.5v9.2c0 .3.2.5.5.5h1.1c.3 0 .5-.2.5-.5z"/><ellipse class="st139" cx="548.7" cy="440.9" rx=".6" ry=".9"/><g class="st140"><path class="st141" d="M544.9 425.2c-.5 0-.9-.4-.9-.9v-22.7c0-.5.4-.9.9-.9s.9.4.9.9v22.7c0 .5-.4.9-.9.9z"/><path class="st141" d="M557.1 413c0 .5-.4.9-.9.9h-22.7c-.5 0-.9-.4-.9-.9s.4-.9.9-.9h22.7c.5 0 .9.4.9.9z"/><path class="st141" d="M553.5 404.3c.3.3.3.9 0 1.3l-16.1 16.1c-.3.3-.9.3-1.3 0-.3-.3-.3-.9 0-1.3l16.1-16.1c.4-.4 1-.4 1.3 0z"/><path class="st141" d="M536.2 404.3c.3-.3.9-.3 1.3 0l16.1 16.1c.3.3.3.9 0 1.3-.3.3-.9.3-1.3 0l-16.1-16.1c-.3-.4-.3-1 0-1.3z"/></g></svg>