<svg xmlns="http://www.w3.org/2000/svg" width="109" height="30" viewBox="0 0 109 30"><g fill="none" fill-rule="evenodd"><path fill="#FF8F8F" d="M9.945 5.967l.001 11.963 9.945-6z"/><path fill="#C72F2D" d="M9.969 29.86L0 23.93l19.89-12 .002 11.963z"/><path fill="#000" d="M11.751 26.617v-7.605l6.335-3.822.001 7.618-6.336 3.81zm-1.805-6.516v7.58L3.62 23.919l6.327-3.817zm9.927-17.934l6.345 3.775L11.75 14.67V7.052l8.122-4.885zm9.964 3.763L19.867 0 9.946 5.967l.001 11.857v.105l-9.946 6 9.97 5.93 9.922-5.966-.001-11.962 9.946-6z"/><path fill="#941D1B" d="M18.086 15.19l-6.335 3.822V16.84l6.336-3.823z"/><path d="M38.978 14.517c-.937 0-1.623.314-1.623.92 0 .642.974.796 2.124.993l.428.073c2.006.35 3.266 1.27 3.266 2.942 0 2.43-2.116 3.445-4.328 3.445-1.71 0-3.407-.445-4.542-1.3l1.23-1.985c.797.533 1.874 1.073 3.334 1.073.922 0 1.637-.314 1.637-.948 0-.614-.693-.782-2.042-.994l-.517-.08c-2.123-.328-3.273-1.278-3.237-3.117.037-1.986 1.748-3.241 4.16-3.241 1.4 0 2.595.226 4.165 1.08l-1.099 2c-.745-.43-1.74-.86-2.956-.86zM44.67 22.7V12.48h7.875v2.198h-5.413v1.766h5.095v2.19h-5.095v1.869h5.442V22.7zm16.752 0l-4.705-6.234V22.7h-2.462V12.48h2.359l4.704 6.235V12.48h2.47V22.7zm13.832-7.95l-2.16 1.227c-.539-.876-1.387-1.35-2.456-1.35-1.63 0-2.84 1.212-2.84 2.964 0 1.897 1.313 2.963 2.848 2.963 1.054 0 1.902-.467 2.491-1.343l2.02 1.417c-.935 1.394-2.52 2.262-4.49 2.262-3.185 0-5.434-2.205-5.434-5.3 0-3.095 2.249-5.3 5.434-5.3 1.976 0 3.702.913 4.587 2.46m1.378 7.95h2.462V12.48h-2.462zm4.335 0V12.48h2.463v7.957h5.191v2.264zm8.773 0V12.48h2.464v7.957h5.19v2.264zm10.523-5.11c0 1.752 1.194 2.965 2.875 2.965 1.682 0 2.876-1.213 2.876-2.964 0-1.753-1.194-2.964-2.876-2.964-1.68 0-2.875 1.211-2.875 2.964m8.317 0c0 3.058-2.256 5.3-5.442 5.3-3.185 0-5.441-2.242-5.441-5.3 0-3.06 2.256-5.3 5.441-5.3 3.186 0 5.442 2.24 5.442 5.3" fill="#000"/></g></svg>