<svg width="266" height="95" viewBox="0 0 266 95" xmlns="http://www.w3.org/2000/svg" xmlns:xlink="http://www.w3.org/1999/xlink"><title>Group</title><defs><path id="a" d="M0 94.61h265.509V.044H0z"/><linearGradient x1="100%" y1="50%" x2="-13.23%" y2="50%" id="c"><stop stop-color="#DF562F" offset="0%"/><stop stop-color="#BF539D" offset="100%"/></linearGradient></defs><g fill="none" fill-rule="evenodd"><g transform="translate(-.031 -.04)"><path d="M101.352 42.277c0 4.478 12.752.626 12.752 9.176 0 4.383-3.078 7.17-9.36 7.17-5.277 0-8.826-2.286-8.92-7.265h5.12c0 1.691 1.099 3.35 4.02 3.35 2.073 0 4.052-.563 4.052-2.692 0-4.321-12.721-.126-12.721-9.394 0-4.634 4.366-6.607 8.512-6.607 4.586 0 8.763 1.753 8.92 7.077h-5.056c0-1.347-.472-3.195-3.833-3.195-2.48 0-3.486 1.096-3.486 2.38zm24.878 4.416h-4.115v-6.2h4.115c1.665 0 2.89 1.064 2.89 3.068 0 1.88-1.225 3.132-2.89 3.132m.66-10.334h-9.706v21.92h4.963v-7.453h4.208c5.152 0 7.947-3.414 7.947-7.578 0-4.478-3.392-6.89-7.413-6.89m20.198 18.037c-3.36 0-5.057-2.66-5.057-7.045 0-4.634 1.696-7.108 5.057-7.108 3.36 0 5.056 2.474 5.056 7.108 0 4.384-1.695 7.045-5.056 7.045m0-18.38c-5.78 0-10.271 4.196-10.271 11.335 0 7.14 4.491 11.273 10.27 11.273 5.78 0 10.272-4.133 10.272-11.273s-4.492-11.335-10.271-11.335m10.901 4.697h6.22v17.566h4.961V40.712h6.251v-4.353h-17.432zm23.935-4.353h-3.455v21.92h13.978v-3.07h-10.523z" fill="#352D32"/><mask id="b" fill="#fff"><use xlink:href="#a"/></mask><path fill="#352D32" mask="url(#b)" d="M196.656 58.278h3.454V36.36h-3.454zm17.494-8.454h6c0 3.037-1.665 5.761-6 5.761-4.68 0-6.313-4.102-6.313-8.235 0-3.977 1.79-8.267 6.314-8.267 2.638 0 4.554 1.284 5.025 4.134h3.676c-.127-1.503-1.352-7.202-8.544-7.202-7.601 0-10.146 6.231-10.146 11.397 0 4.071 1.728 11.21 9.769 11.21 3.643 0 5.497-1.658 6.345-2.943v2.6h3.109V46.91h-9.234v2.913zm27.831-4.165h-10.616v-9.3h-3.456v21.92h3.456v-9.551h10.616v9.55h3.456V36.36h-3.456zm6.88-9.3v3.069h6.596v18.85h3.455v-18.85h6.596v-3.069z"/></g><path fill="#F69F8B" d="M33.998 53.065l10.245 5.896 9.965-5.888.036-11.615-9.715 5.826-10.496-5.88-.035.02z"/><path fill="#FACEC9" d="M54.244 41.458v-.066l-10.146-5.797-10.065 5.81 10.496 5.88z"/><path d="M34.03 53.729V42.088l.035-.02 10.065-5.81 10.146 5.798v.066l-.037 11.615-9.965 5.888L34.03 53.73zM44.166.666L0 25.693l15.713 8.985V64.25l28.466 16.3 17.752-10.527-5.206-3.115-12.593 7.468-23.06-13.204-.01-23.435 7.621 4.358v14.711L44.31 65.8l12.45-7.356 20.534 11.742L43.93 89.091 10.274 69.719l-2.149-1.236-2.43 1.52-2.702 1.691 3.818 2.187 37.1 21.353 44.165-25.026-15.73-8.996.017-29.562-28.466-16.3-17.626 10.551 5.193 3.108 12.48-7.484 23.06 13.203L67 58.155l-7.413-4.24.047-14.941-15.516-8.866-12.766 7.368-20.568-11.762L44.145 6.81l33.59 19.333.01.006 2.136 1.226 2.582-1.617L85 24.167l-3.886-2.235L44.166.666z" fill="url(#c)" transform="translate(-.031 -.664)"/><path d="M232.286 62.781c2.328 0 3.792.865 3.792 2.772 0 1.007-.62 1.821-1.45 2.121.915.307 1.665 1.164 1.665 2.243 0 1.914-1.365 2.864-3.765 2.864H228.2v-10h4.086zm-2.093 5.843v2.4l2.235.007c1.108 0 1.793-.257 1.793-1.214 0-.943-.685-1.193-1.793-1.193h-2.235zm0-4.086v2.336h2.043c.992 0 1.764-.207 1.764-1.178 0-.936-.786-1.158-1.772-1.158h-2.035zm15.364 8.243h-7.471v-10h7.414v1.829h-5.422v2.214h5.172v1.829h-5.172v2.3h5.48v1.828zm9.329-8.135h-3.1v8.135h-1.993v-8.135h-3.1V62.78h8.193v1.865zm10.592 8.135h-2.128l-.872-2.328h-4.264l-.871 2.328h-2.079l3.893-10h2.429l3.892 10zm-6.578-4.164h2.893l-1.443-3.864-1.45 3.864z" fill="#CCC0C7"/></g></svg>