<svg width="119" height="40" viewBox="0 0 119 40" xmlns="http://www.w3.org/2000/svg"><title>2F0310DC-F0ED-4A36-A38F-736B85AFF43A</title><g fill="none" fill-rule="evenodd"><path d="M58.436 24.807v-4.18h-4.161v4.18h-2.382V14.318h2.382v4.196h4.161v-4.196h2.367v10.49h-2.367m4.328-.001V14.318h7.584v2.083h-5.202v2.038h4.975v2.113h-4.975v2.187h5.352v2.068h-7.734m13.479-8.645l-1.221 4.644h2.427l-1.206-4.644zm-1.779 6.667l-.513 1.978H71.48l3.15-10.489h3.333l3.166 10.49h-2.593l-.543-1.979h-3.528zm12.258-4.015c.965 0 1.614-.495 1.614-1.274 0-.854-.543-1.304-1.508-1.304h-2.111v2.578h2.005zm3.8 4.989c.015.36.12.84.226 1.004H88.29c-.105-.18-.135-.704-.15-1.169l-.046-1.618c-.045-.824-.436-1.303-1.326-1.303h-2.051v4.09h-2.382V14.318h4.84c2.337 0 3.452 1.304 3.452 2.922 0 1.094-.572 1.948-1.718 2.413.965.24 1.553 1.093 1.553 2.052l.06 2.098zm7.841-6.473c-.076-.914-.438-1.798-2.202-1.798-1.508 0-2.186.615-2.186 1.574 0 .464.196.823.573 1.063 1.568.959 5.669.27 5.669 3.507 0 1.962-1.357 3.296-4.176 3.296-2.096 0-3.905-.974-3.95-3.296h1.718c.045 1.198.83 1.873 2.382 1.873 1.025 0 2.322-.36 2.322-1.664 0-.614-.241-.974-.769-1.199-1.01-.434-2.759-.494-3.965-1.048-.874-.39-1.508-1.14-1.508-2.473 0-2.097 1.99-3.011 3.845-3.011 2.247 0 3.86.973 3.935 3.176h-1.688m7.101-1.723l-1.598 5.215h3.227l-1.629-5.215zm-2.005 6.638l-.753 2.562h-1.75l3.378-10.489h2.336l3.438 10.49h-1.794l-.83-2.563h-4.025zm8.082-7.927l2.578 5.125 2.624-5.125h1.764l-3.589 6.803v3.686h-1.658v-3.686l-3.543-6.803h1.824" fill="#164C5F"/><path fill="#00A79C" d="M1.316 18.275l28.312 16.594.17-6.663 5.665-3.256-.087-13.291-16.94-9.909-17.12 9.909v6.616"/><path fill="#94D0BE" d="M1.316 18.275l.826 7.103 15.745 9.49 5.48-3.67L1.315 18.276"/><path fill="#8EC240" d="M1.316 18.275l22.05 12.924.024-.016L1.316 18.275"/><path fill="#B5D038" d="M31.134 27.438l-1 .575 1.375.477-.375-1.052"/><path fill="#098091" d="M28.536 20.143v7.314l1.599.556.999-.575-2.598-7.295"/><path d="M28.541 27.444l-.133 5.208-4.347-2.572-.004.002L2.605 17.538l-.012-5.132 15.84-9.167 15.672 9.167.077 11.796-5.64 3.242zM2.634 30.78l-.008-3.627 13.217 7.748-3.148 1.846L2.634 30.78zm-.023-10.257l18.901 11.052-3.126 1.834L2.62 24.166l-.008-3.643zm34.036-9.611L20.91 1.707l.032-.018L18.387.2.644 10.561l-.606.35v.004l.006 2.977.001-.001.004 2.153H.048l.006 2.984.002.001.03 13.231 12.602 7.475 11.367-6.669 6.792 4.02.208-8.119 5.689-3.27-.097-14.785z" fill="#164C5F"/></g></svg>